0
SECTION
2
HEADER
9
$INSUNITS
70
4
0
ENDSEC
0
SECTION
2
TABLES
0
TABLE
2
LTYPE
0
LTYPE
72
65
70
64
2
CONTINUOUS
3
______
73
0
40
0
0
ENDTAB
0
TABLE
2
LAYER
0
ENDTAB
0
ENDSEC
0
SECTION
2
ENTITIES
0
LINE
8
0
10
163.4001024
20
-163
11
153.5
21
-163
0
LINE
8
0
10
149.5
20
-159
11
149.5
21
-147
0
LINE
8
0
10
153.5
20
-143
11
163.3770572
21
-143
0
LINE
8
0
10
167.3769651
20
-139.0271488
11
167.4765874
21
-124.3494539
0
LINE
8
0
10
170.9154309
20
-120.4161473
11
203.2208617
21
-115.8395446
0
LINE
8
0
10
203.7819261
20
-115.8
11
224.2140559
21
-115.8
0
LINE
8
0
10
224.7830366
20
-115.8406742
11
240.0972645
21
-118.0414279
0
LINE
8
0
10
243.5280453
20
-122.0444225
11
243.3591355
21
-137.5153694
0
LINE
8
0
10
247.2890875
20
-141.558429
11
280.6913341
21
-142.1414674
0
LINE
8
0
10
284.6210964
20
-146.199377
11
284.1063385
21
-181.3813954
0
LINE
8
0
10
283.8888408
20
-182.6251494
11
278.8878948
21
-197.1489512
0
LINE
8
0
10
273.8035478
20
-199.6287527
11
258.1689531
21
-194.24533
0
LINE
8
0
10
257.267542
20
-194.0475412
11
244.0690411
21
-192.7181558
0
LINE
8
0
10
240.4796465
20
-188.4592667
11
241.3081114
21
-176.6116665
0
LINE
8
0
10
237.3604732
20
-172.3328675
11
221.6728089
21
-172.165714
0
LINE
8
0
10
221.5813357
20
-172.1657854
11
206.757368
21
-172.3468563
0
LINE
8
0
10
206.2451588
20
-172.3861025
11
188.7791383
21
-174.8604554
0
LINE
8
0
10
188.2180739
20
-174.9
11
171.4498976
21
-174.9
0
LINE
8
0
10
167.4502153
20
-170.950416
11
167.3997847
21
-166.949584
0
ARC
8
0
10
153.5
20
-159
40
4
50
180
51
270
0
ARC
8
0
10
153.5
20
-147
40
4
50
90
51
180
0
ARC
8
0
10
163.3770572
20
-139
40
4
50
270
51
359.6111191
0
ARC
8
0
10
171.4764953
20
-124.3766027
40
4
50
98.0632449
51
179.6111191
0
ARC
8
0
10
203.7819261
20
-119.8
40
4
50
90
51
98.0632449
0
ARC
8
0
10
224.2140559
20
-119.8
40
4
50
81.8222132
51
90
0
ARC
8
0
10
239.5282837
20
-122.0007537
40
4
50
359.3744781
51
81.8222132
0
ARC
8
0
10
247.3588971
20
-137.5590382
40
4
50
179.3744781
51
269.0000004
0
ARC
8
0
10
280.6215245
20
-146.1408582
40
4
50
359.16175
51
89.0000004
0
ARC
8
0
10
280.1067666
20
-181.3228766
40
4
50
340.999998
51
359.16175
0
ARC
8
0
10
275.1058205
20
-195.8466785
40
4
50
250.999998
51
340.999998
0
ARC
8
0
10
256.8666804
20
-198.0274043
40
4
50
70.999998
51
84.2484259
0
ARC
8
0
10
244.4699027
20
-188.7382927
40
4
50
175.9999987
51
264.2484259
0
ARC
8
0
10
237.3178552
20
-176.3326405
40
4
50
355.9999987
51
89.3895305
0
ARC
8
0
10
221.6301909
20
-176.165487
40
4
50
89.3895305
51
90.6998166
0
ARC
8
0
10
206.8062232
20
-176.3465579
40
4
50
90.6998166
51
98.0632449
0
ARC
8
0
10
188.2180739
20
-170.9
40
4
50
270
51
278.0632449
0
ARC
8
0
10
171.4498976
20
-170.9
40
4
50
180.7221751
51
270
0
ARC
8
0
10
163.4001024
20
-167
40
4
50
0.7221751
51
90
0
LINE
8
0
10
151.25
20
-161.25
11
168.75
21
-161.25
0
LINE
8
0
10
168.75
20
-161.25
11
168.75
21
-144.75
0
LINE
8
0
10
168.75
20
-144.75
11
151.25
21
-144.75
0
LINE
8
0
10
151.25
20
-144.75
11
151.25
21
-161.25
0
LINE
8
0
10
169.25
20
-173.15
11
186.75
21
-173.15
0
LINE
8
0
10
186.75
20
-173.15
11
186.75
21
-156.65
0
LINE
8
0
10
186.75
20
-156.65
11
169.25
21
-156.65
0
LINE
8
0
10
169.25
20
-156.65
11
169.25
21
-173.15
0
LINE
8
0
10
169.25
20
-156.15
11
186.75
21
-156.15
0
LINE
8
0
10
186.75
20
-156.15
11
186.75
21
-139.65
0
LINE
8
0
10
186.75
20
-139.65
11
169.25
21
-139.65
0
LINE
8
0
10
169.25
20
-139.65
11
169.25
21
-156.15
0
LINE
8
0
10
169.25
20
-139.15
11
186.75
21
-139.15
0
LINE
8
0
10
186.75
20
-139.15
11
186.75
21
-122.65
0
LINE
8
0
10
186.75
20
-122.65
11
169.25
21
-122.65
0
LINE
8
0
10
169.25
20
-122.65
11
169.25
21
-139.15
0
LINE
8
0
10
187.25
20
-170.6
11
204.75
21
-170.6
0
LINE
8
0
10
204.75
20
-170.6
11
204.75
21
-154.1
0
LINE
8
0
10
204.75
20
-154.1
11
187.25
21
-154.1
0
LINE
8
0
10
187.25
20
-154.1
11
187.25
21
-170.6
0
LINE
8
0
10
187.25
20
-153.6
11
204.75
21
-153.6
0
LINE
8
0
10
204.75
20
-153.6
11
204.75
21
-137.1
0
LINE
8
0
10
204.75
20
-137.1
11
187.25
21
-137.1
0
LINE
8
0
10
187.25
20
-137.1
11
187.25
21
-153.6
0
LINE
8
0
10
187.25
20
-136.6
11
204.75
21
-136.6
0
LINE
8
0
10
204.75
20
-136.6
11
204.75
21
-120.1
0
LINE
8
0
10
204.75
20
-120.1
11
187.25
21
-120.1
0
LINE
8
0
10
187.25
20
-120.1
11
187.25
21
-136.6
0
LINE
8
0
10
205.25
20
-168.05
11
222.75
21
-168.05
0
LINE
8
0
10
222.75
20
-168.05
11
222.75
21
-151.55
0
LINE
8
0
10
222.75
20
-151.55
11
205.25
21
-151.55
0
LINE
8
0
10
205.25
20
-151.55
11
205.25
21
-168.05
0
LINE
8
0
10
205.25
20
-151.05
11
222.75
21
-151.05
0
LINE
8
0
10
222.75
20
-151.05
11
222.75
21
-134.55
0
LINE
8
0
10
222.75
20
-134.55
11
205.25
21
-134.55
0
LINE
8
0
10
205.25
20
-134.55
11
205.25
21
-151.05
0
LINE
8
0
10
205.25
20
-134.05
11
222.75
21
-134.05
0
LINE
8
0
10
222.75
20
-134.05
11
222.75
21
-117.55
0
LINE
8
0
10
222.75
20
-117.55
11
205.25
21
-117.55
0
LINE
8
0
10
205.25
20
-117.55
11
205.25
21
-134.05
0
LINE
8
0
10
223.4073503
20
-170.4460349
11
240.904685
21
-170.751452
0
LINE
8
0
10
240.904685
20
-170.751452
11
241.1926497
21
-154.2539651
0
LINE
8
0
10
241.1926497
20
-154.2539651
11
223.695315
21
-153.948548
0
LINE
8
0
10
223.695315
20
-153.948548
11
223.4073503
21
-170.4460349
0
LINE
8
0
10
223.7040412
20
-153.4486241
11
241.2013759
21
-153.7540412
0
LINE
8
0
10
241.2013759
20
-153.7540412
11
241.4893406
21
-137.2565543
0
LINE
8
0
10
241.4893406
20
-137.2565543
11
223.9920059
21
-136.9511372
0
LINE
8
0
10
223.9920059
20
-136.9511372
11
223.7040412
21
-153.4486241
0
LINE
8
0
10
224.0007321
20
-136.4512133
11
241.4980668
21
-136.7566304
0
LINE
8
0
10
241.4980668
20
-136.7566304
11
241.7860315
21
-120.2591435
0
LINE
8
0
10
241.7860315
20
-120.2591435
11
224.2886968
21
-119.9537264
0
LINE
8
0
10
224.2886968
20
-119.9537264
11
224.0007321
21
-136.4512133
0
LINE
8
0
10
241.5974579
20
-159.7118612
11
259.0947926
21
-160.0172783
0
LINE
8
0
10
259.0947926
20
-160.0172783
11
259.3827573
21
-143.5197914
0
LINE
8
0
10
259.3827573
20
-143.5197914
11
241.8854226
21
-143.2143743
0
LINE
8
0
10
241.8854226
20
-143.2143743
11
241.5974579
21
-159.7118612
0
LINE
8
0
10
242.0768338
20
-190.7057021
11
259.5342046
21
-191.9264404
0
LINE
8
0
10
259.5342046
20
-191.9264404
11
260.6851864
21
-175.4666335
0
LINE
8
0
10
260.6851864
20
-175.4666335
11
243.2278156
21
-174.2458952
0
LINE
8
0
10
243.2278156
20
-174.2458952
11
242.0768338
21
-190.7057021
0
LINE
8
0
10
259.9541339
20
-193.0091809
11
276.500709
21
-198.7066236
0
LINE
8
0
10
276.500709
20
-198.7066236
11
281.8725835
21
-183.1055671
0
LINE
8
0
10
281.8725835
20
-183.1055671
11
265.3260084
21
-177.4081244
0
LINE
8
0
10
265.3260084
20
-177.4081244
11
259.9541339
21
-193.0091809
0
ENDSEC
0
EOF