0
SECTION
2
HEADER
9
$INSUNITS
70
4
0
ENDSEC
0
SECTION
2
TABLES
0
TABLE
2
LTYPE
0
LTYPE
72
65
70
64
2
CONTINUOUS
3
______
73
0
40
0
0
ENDTAB
0
TABLE
2
LAYER
0
ENDTAB
0
ENDSEC
0
SECTION
2
ENTITIES
0
LINE
8
0
10
163.5127379
20
-164.5
11
152
21
-164.5
0
LINE
8
0
10
148
20
-160.5
11
148
21
-145.5
0
LINE
8
0
10
152
20
-141.5
11
163.9420932
21
-141.5
0
LINE
8
0
10
167.9187131
20
-137.06815
11
166.4180144
21
-123.2492163
0
LINE
8
0
10
169.8335699
20
-118.8569109
11
201.7208617
21
-114.3395446
0
LINE
8
0
10
202.2819261
20
-114.3
11
225.7117166
21
-114.3
0
LINE
8
0
10
226.2853038
20
-114.3413389
11
241.2039268
21
-116.502962
0
LINE
8
0
10
244.5986459
20
-120.9641623
11
242.8684063
21
-134.6270156
0
LINE
8
0
10
246.7669029
20
-139.1289456
11
285.2950696
21
-139.8014573
0
LINE
8
0
10
289.2102768
20
-144.1467393
11
286.0462059
21
-180.6000429
0
LINE
8
0
10
285.8432633
20
-181.5564245
11
279.8178204
21
-199.0555813
0
LINE
8
0
10
274.7334734
20
-201.5353828
11
256.3100043
21
-195.1916737
0
LINE
8
0
10
255.3096132
20
-194.9851558
11
242.5738485
21
-194.0212337
0
LINE
8
0
10
238.8854739
20
-189.7536155
11
239.8672666
21
-175.7133266
0
LINE
8
0
10
235.3135111
20
-171.474191
11
220.3467586
21
-173.6038675
0
LINE
8
0
10
219.8530537
20
-173.6431488
11
208.2468374
21
-173.8456924
0
LINE
8
0
10
207.7555673
20
-173.884628
11
190.2791383
21
-176.3604554
0
LINE
8
0
10
189.7180739
20
-176.4
11
170.8872621
21
-176.4
0
LINE
8
0
10
166.9662118
20
-171.6092
11
167.4337882
21
-169.2908
0
ARC
8
0
10
152
20
-160.5
40
4
50
180
51
270
0
ARC
8
0
10
152
20
-145.5
40
4
50
90
51
180
0
ARC
8
0
10
163.9420932
20
-137.5
40
4
50
270
51
6.1978757
0
ARC
8
0
10
170.3946344
20
-122.8173663
40
4
50
98.0632449
51
186.1978757
0
ARC
8
0
10
202.2819261
20
-118.3
40
4
50
90
51
98.0632449
0
ARC
8
0
10
225.7117166
20
-118.3
40
4
50
81.7555478
51
90
0
ARC
8
0
10
240.6303396
20
-120.4616231
40
4
50
352.7825842
51
81.7555478
0
ARC
8
0
10
246.8367125
20
-135.1295548
40
4
50
172.7825842
51
269.0000004
0
ARC
8
0
10
285.22526
20
-143.8008481
40
4
50
355.039278
51
89.0000004
0
ARC
8
0
10
282.0611891
20
-180.2541517
40
4
50
340.999998
51
355.039278
0
ARC
8
0
10
276.0357461
20
-197.7533086
40
4
50
250.999998
51
340.999998
0
ARC
8
0
10
255.0077315
20
-198.973748
40
4
50
70.999998
51
85.671749
0
ARC
8
0
10
242.8757301
20
-190.0326415
40
4
50
175.9999987
51
265.671749
0
ARC
8
0
10
235.8770104
20
-175.4343007
40
4
50
355.9999987
51
98.0984705
0
ARC
8
0
10
219.7832593
20
-169.6437578
40
4
50
270.9997818
51
278.0984705
0
ARC
8
0
10
208.3166318
20
-177.8450834
40
4
50
90.9997818
51
98.0632449
0
ARC
8
0
10
189.7180739
20
-172.4
40
4
50
270
51
278.0632449
0
ARC
8
0
10
170.8872621
20
-172.4
40
4
50
168.5975069
51
270
0
ARC
8
0
10
163.5127379
20
-168.5
40
4
50
348.5975069
51
90
0
ENDSEC
0
EOF