0
SECTION
2
HEADER
9
$INSUNITS
70
4
0
ENDSEC
0
SECTION
2
TABLES
0
TABLE
2
LTYPE
0
LTYPE
72
65
70
64
2
CONTINUOUS
3
______
73
0
40
0
0
ENDTAB
0
TABLE
2
LAYER
0
ENDTAB
0
ENDSEC
0
SECTION
2
ENTITIES
0
LINE
8
0
10
151
20
-161.5
11
169
21
-161.5
0
LINE
8
0
10
169
20
-144.5
11
151
21
-144.5
0
LINE
8
0
10
151
20
-144.5
11
151
21
-161.5
0
LINE
8
0
10
169
20
-173.4
11
187
21
-173.4
0
LINE
8
0
10
187
20
-173.4
11
187
21
-170.85
0
LINE
8
0
10
169
20
-161.5
11
169
21
-173.4
0
LINE
8
0
10
169
20
-144.5
11
169
21
-122.4
0
LINE
8
0
10
187
20
-122.4
11
169
21
-122.4
0
LINE
8
0
10
187
20
-170.85
11
205
21
-170.85
0
LINE
8
0
10
205
20
-170.85
11
205
21
-168.3
0
LINE
8
0
10
205
20
-119.85
11
187
21
-119.85
0
LINE
8
0
10
187
20
-119.85
11
187
21
-122.4
0
LINE
8
0
10
205
20
-168.3
11
223
21
-168.3
0
LINE
8
0
10
223
20
-168.3
11
223
21
-117.3
0
LINE
8
0
10
223
20
-117.3
11
205
21
-117.3
0
LINE
8
0
10
205
20
-117.3
11
205
21
-119.85
0
LINE
8
0
10
223.1530253
20
-170.6916338
11
241.1502838
21
-171.0057771
0
LINE
8
0
10
241.1502838
20
-171.0057771
11
241.3431329
21
-159.9574601
0
LINE
8
0
10
223.1530253
20
-170.6916338
11
224.043098
21
-119.6994013
0
LINE
8
0
10
241.6398238
20
-142.9600492
11
241.7436656
21
-137.0109554
0
LINE
8
0
10
241.7436656
20
-137.0109555
11
242.0403565
21
-120.0135446
0
LINE
8
0
10
242.0403565
20
-120.0135446
11
224.043098
21
-119.6994013
0
LINE
8
0
10
241.3431329
20
-159.9574601
11
259.3403914
21
-160.2716034
0
LINE
8
0
10
259.3403914
20
-160.2716034
11
259.6370823
21
-143.2741925
0
LINE
8
0
10
259.6370823
20
-143.2741925
11
241.6398238
21
-142.9600492
0
LINE
8
0
10
241.8100036
20
-190.937654
11
259.7661565
21
-192.1932705
0
LINE
8
0
10
259.7661565
20
-192.1932705
11
260.9520166
21
-175.2346816
0
LINE
8
0
10
260.9520166
20
-175.2346816
11
242.9958637
21
-173.9790651
0
LINE
8
0
10
242.9958637
20
-173.9790651
11
241.8100036
21
-190.937654
0
LINE
8
0
10
259.6363622
20
-193.1641685
11
276.6556966
21
-199.0243953
0
LINE
8
0
10
276.6556966
20
-199.0243953
11
282.1903552
21
-182.9505795
0
LINE
8
0
10
282.1903552
20
-182.9505795
11
265.1710208
21
-177.0903527
0
LINE
8
0
10
265.1710208
20
-177.0903527
11
259.6363622
21
-193.1641685
0
ENDSEC
0
EOF