0
SECTION
2
HEADER
9
$INSUNITS
70
4
0
ENDSEC
0
SECTION
2
TABLES
0
TABLE
2
LTYPE
0
LTYPE
72
65
70
64
2
CONTINUOUS
3
______
73
0
40
0
0
ENDTAB
0
TABLE
2
LAYER
0
ENDTAB
0
ENDSEC
0
SECTION
2
ENTITIES
0
LINE
8
0
10
151.25
20
-161.25
11
168.75
21
-161.25
0
LINE
8
0
10
168.75
20
-161.25
11
168.75
21
-144.75
0
LINE
8
0
10
168.75
20
-144.75
11
151.25
21
-144.75
0
LINE
8
0
10
151.25
20
-144.75
11
151.25
21
-161.25
0
LINE
8
0
10
169.25
20
-173.15
11
186.75
21
-173.15
0
LINE
8
0
10
186.75
20
-173.15
11
186.75
21
-156.65
0
LINE
8
0
10
186.75
20
-156.65
11
169.25
21
-156.65
0
LINE
8
0
10
169.25
20
-156.65
11
169.25
21
-173.15
0
LINE
8
0
10
169.25
20
-156.15
11
186.75
21
-156.15
0
LINE
8
0
10
186.75
20
-156.15
11
186.75
21
-139.65
0
LINE
8
0
10
186.75
20
-139.65
11
169.25
21
-139.65
0
LINE
8
0
10
169.25
20
-139.65
11
169.25
21
-156.15
0
LINE
8
0
10
169.25
20
-139.15
11
186.75
21
-139.15
0
LINE
8
0
10
186.75
20
-139.15
11
186.75
21
-122.65
0
LINE
8
0
10
186.75
20
-122.65
11
169.25
21
-122.65
0
LINE
8
0
10
169.25
20
-122.65
11
169.25
21
-139.15
0
LINE
8
0
10
187.25
20
-170.6
11
204.75
21
-170.6
0
LINE
8
0
10
204.75
20
-170.6
11
204.75
21
-154.1
0
LINE
8
0
10
204.75
20
-154.1
11
187.25
21
-154.1
0
LINE
8
0
10
187.25
20
-154.1
11
187.25
21
-170.6
0
LINE
8
0
10
187.25
20
-153.6
11
204.75
21
-153.6
0
LINE
8
0
10
204.75
20
-153.6
11
204.75
21
-137.1
0
LINE
8
0
10
204.75
20
-137.1
11
187.25
21
-137.1
0
LINE
8
0
10
187.25
20
-137.1
11
187.25
21
-153.6
0
LINE
8
0
10
187.25
20
-136.6
11
204.75
21
-136.6
0
LINE
8
0
10
204.75
20
-136.6
11
204.75
21
-120.1
0
LINE
8
0
10
204.75
20
-120.1
11
187.25
21
-120.1
0
LINE
8
0
10
187.25
20
-120.1
11
187.25
21
-136.6
0
LINE
8
0
10
205.25
20
-168.05
11
222.75
21
-168.05
0
LINE
8
0
10
222.75
20
-168.05
11
222.75
21
-151.55
0
LINE
8
0
10
222.75
20
-151.55
11
205.25
21
-151.55
0
LINE
8
0
10
205.25
20
-151.55
11
205.25
21
-168.05
0
LINE
8
0
10
205.25
20
-151.05
11
222.75
21
-151.05
0
LINE
8
0
10
222.75
20
-151.05
11
222.75
21
-134.55
0
LINE
8
0
10
222.75
20
-134.55
11
205.25
21
-134.55
0
LINE
8
0
10
205.25
20
-134.55
11
205.25
21
-151.05
0
LINE
8
0
10
205.25
20
-134.05
11
222.75
21
-134.05
0
LINE
8
0
10
222.75
20
-134.05
11
222.75
21
-117.55
0
LINE
8
0
10
222.75
20
-117.55
11
205.25
21
-117.55
0
LINE
8
0
10
205.25
20
-117.55
11
205.25
21
-134.05
0
LINE
8
0
10
223.4073503
20
-170.4460349
11
240.904685
21
-170.751452
0
LINE
8
0
10
240.904685
20
-170.751452
11
241.1926497
21
-154.2539651
0
LINE
8
0
10
241.1926497
20
-154.2539651
11
223.695315
21
-153.948548
0
LINE
8
0
10
223.695315
20
-153.948548
11
223.4073503
21
-170.4460349
0
LINE
8
0
10
223.7040412
20
-153.4486241
11
241.2013759
21
-153.7540412
0
LINE
8
0
10
241.2013759
20
-153.7540412
11
241.4893406
21
-137.2565543
0
LINE
8
0
10
241.4893406
20
-137.2565543
11
223.9920059
21
-136.9511372
0
LINE
8
0
10
223.9920059
20
-136.9511372
11
223.7040412
21
-153.4486241
0
LINE
8
0
10
224.0007321
20
-136.4512133
11
241.4980668
21
-136.7566304
0
LINE
8
0
10
241.4980668
20
-136.7566304
11
241.7860315
21
-120.2591435
0
LINE
8
0
10
241.7860315
20
-120.2591435
11
224.2886968
21
-119.9537264
0
LINE
8
0
10
224.2886968
20
-119.9537264
11
224.0007321
21
-136.4512133
0
LINE
8
0
10
241.5974579
20
-159.7118612
11
259.0947926
21
-160.0172783
0
LINE
8
0
10
259.0947926
20
-160.0172783
11
259.3827573
21
-143.5197914
0
LINE
8
0
10
259.3827573
20
-143.5197914
11
241.8854226
21
-143.2143743
0
LINE
8
0
10
241.8854226
20
-143.2143743
11
241.5974579
21
-159.7118612
0
LINE
8
0
10
242.0768338
20
-190.7057021
11
259.5342046
21
-191.9264404
0
LINE
8
0
10
259.5342046
20
-191.9264404
11
260.6851864
21
-175.4666335
0
LINE
8
0
10
260.6851864
20
-175.4666335
11
243.2278156
21
-174.2458952
0
LINE
8
0
10
243.2278156
20
-174.2458952
11
242.0768338
21
-190.7057021
0
LINE
8
0
10
259.9541339
20
-193.0091809
11
276.500709
21
-198.7066236
0
LINE
8
0
10
276.500709
20
-198.7066236
11
281.8725835
21
-183.1055671
0
LINE
8
0
10
281.8725835
20
-183.1055671
11
265.3260084
21
-177.4081244
0
LINE
8
0
10
265.3260084
20
-177.4081244
11
259.9541339
21
-193.0091809
0
ENDSEC
0
EOF